<?xml version="1.0" encoding="UTF-8"?>
<!DOCTYPE svg PUBLIC "-//W3C//DTD SVG 1.1//EN" "http://www.w3.org/Graphics/SVG/1.1/DTD/svg11.dtd">
<!-- Creator: CorelDRAW 2026 -->
<svg xmlns="http://www.w3.org/2000/svg" xml:space="preserve" width="91.44mm" height="91.44mm" version="1.1" style="shape-rendering:geometricPrecision; text-rendering:geometricPrecision; image-rendering:optimizeQuality; fill-rule:evenodd; clip-rule:evenodd"
viewBox="0 0 9144 9144"
 xmlns:xlink="http://www.w3.org/1999/xlink"
 xmlns:xodm="http://www.corel.com/coreldraw/odm/2003">
 <defs>
  <style type="text/css">
   <![CDATA[
    .fil2 {fill:#292827}
    .fil1 {fill:url(#id2);fill-rule:nonzero}
    .fil0 {fill:url(#id3);fill-rule:nonzero}
    .fil3 {fill:url(#id4);fill-rule:nonzero}
    .fil4 {fill:url(#id5);fill-rule:nonzero}
   ]]>
  </style>
    <mask id="id0">
  <linearGradient id="id1" gradientUnits="userSpaceOnUse" x1="4298.75" y1="3071.71" x2="3708.08" y2="5555.6">
   <stop offset="0" style="stop-opacity:1; stop-color:white"/>
   <stop offset="0.529412" style="stop-opacity:0.501961; stop-color:white"/>
   <stop offset="1" style="stop-opacity:0; stop-color:white"/>
  </linearGradient>
     <rect style="fill:url(#id1)" x="3591.69" y="2954.24" width="1113.98" height="2634.78"/>
    </mask>
  <linearGradient id="id2" gradientUnits="userSpaceOnUse" x1="3885.67" y1="2967.4" x2="3687" y2="6260.74">
   <stop offset="0" style="stop-opacity:1; stop-color:#B0ADAF"/>
   <stop offset="1" style="stop-opacity:1; stop-color:#292929"/>
  </linearGradient>
  <linearGradient id="id3" gradientUnits="userSpaceOnUse" x1="2713.61" y1="3790.14" x2="2788.28" y2="6264.64">
   <stop offset="0" style="stop-opacity:1; stop-color:#D0D1D1"/>
   <stop offset="0.34902" style="stop-opacity:1; stop-color:#8A8B8B"/>
   <stop offset="1" style="stop-opacity:1; stop-color:#444545"/>
  </linearGradient>
  <linearGradient id="id4" gradientUnits="userSpaceOnUse" x1="5037.03" y1="2973.79" x2="4719.57" y2="6254.57">
   <stop offset="0" style="stop-opacity:1; stop-color:#E1DFDF"/>
   <stop offset="1" style="stop-opacity:1; stop-color:#404040"/>
  </linearGradient>
  <linearGradient id="id5" gradientUnits="userSpaceOnUse" x1="6261.42" y1="2137.11" x2="6184.03" y2="6264.79">
   <stop offset="0" style="stop-opacity:1; stop-color:#FEFEFE"/>
   <stop offset="1" style="stop-opacity:1; stop-color:#888788"/>
  </linearGradient>
 </defs>
 <g id="Layer_x0020_1">
  <metadata id="CorelCorpID_0Corel-Layer"/>
  <g id="_1005299408">
   <path class="fil0" d="M2490.77 3789.6c302.5,0 499.32,91.26 611.28,367.42l854.28 2108.28 -1311 0 -1099.77 -2475.7 945.21 0z"/>
   <path class="fil1" d="M3604.74 2963.06l-959.31 3302.24 1311.01 0 0 0 970.79 -3195.04c-178.29,-82.7 -1322.28,-108.39 -1322.49,-107.2z"/>
   <path class="fil2" style="mask:url(#id0)" d="M4164.76 5580.2c-13.99,-584.94 -387.04,-2020.7 -564.25,-2599.69l4.23 -17.45c0,0 961.25,617.57 1042.43,645.97 177.64,62.21 -172.55,1026.28 -246.9,1231.35 -111.85,308.46 -235.51,739.82 -235.51,739.82z"/>
   <path class="fil3" d="M4549.95 2963.06c302.61,0 509.51,145.56 596.54,431.37l1005.37 2870.87 -1304.72 0 -1242.4 -3302.24 945.21 0z"/>
   <path class="fil4" d="M6778.63 2137.11c-301.42,0.1 -496.18,123.66 -596.55,404.05l-1335.07 3724.17 1304.73 0 1446.7 -4128.77 -819.81 0.55z"/>
  </g>
 </g>
</svg>
