
<svg version="1.1" xmlns="http://www.w3.org/2000/svg" width="600" height="334" viewBox="0 0 600 334" preserveAspectRatio="xMidYMid meet">
<path d="M0 0 C1.34807739 0.00424484 1.34807739 0.00424484 2.72338867 0.00857544 C5.56573365 0.01968125 8.40775186 0.04476745 11.25 0.0703125 C13.1887975 0.08035473 15.12759999 0.08947839 17.06640625 0.09765625 C21.79439482 0.11958905 26.5221422 0.15405166 31.25 0.1953125 C30.64411313 6.58098285 28.6725232 12.22029614 26.515625 18.23828125 C25.9379261 19.87531006 25.9379261 19.87531006 25.34855652 21.54541016 C24.07160259 25.15999456 22.78570073 28.77133108 21.5 32.3828125 C20.59492893 34.93802612 19.69200497 37.49399614 18.78930664 40.05004883 C17.37809048 44.0448415 15.96636177 48.0394481 14.551651 52.03300476 C9.99581463 64.894807 5.4898373 77.77374666 0.98999023 90.65524292 C-6.0637511 110.84219782 -13.13688179 131.0223999 -20.22677612 151.19668579 C-21.07058967 153.59820005 -21.91395851 155.99987061 -22.75686646 158.40170288 C-23.91473746 161.70055168 -25.07430222 164.99879994 -26.234375 168.296875 C-26.5780864 169.27708115 -26.92179779 170.25728729 -27.27592468 171.26719666 C-27.5893129 172.1569368 -27.90270111 173.04667694 -28.22558594 173.96337891 C-28.49755798 174.73726959 -28.76953003 175.51116028 -29.04974365 176.3085022 C-29.75 178.1953125 -29.75 178.1953125 -30.75 180.1953125 C-49.89 180.1953125 -69.03 180.1953125 -88.75 180.1953125 C-98.65 153.9603125 -98.65 153.9603125 -108.75 127.1953125 C-115.414102 147.14706848 -115.414102 147.14706848 -121.75 167.1953125 C-123.07 171.4853125 -124.39 175.7753125 -125.75 180.1953125 C-144.89 180.1953125 -164.03 180.1953125 -183.75 180.1953125 C-190.77066738 164.98386651 -197.75677385 149.80115523 -204.4375 134.4453125 C-205.96792186 130.93656692 -207.50077443 127.4288906 -209.03515625 123.921875 C-209.61200165 122.60326981 -209.61200165 122.60326981 -210.20050049 121.25802612 C-212.99046802 114.89440783 -215.82582704 108.55218084 -218.68359375 102.21875 C-219.08057968 101.33775635 -219.47756561 100.4567627 -219.88658142 99.54907227 C-221.79059949 95.32535413 -223.70065242 91.10452671 -225.61987305 86.88769531 C-226.30148676 85.37835329 -226.98289495 83.86891843 -227.6640625 82.359375 C-227.97874985 81.67386566 -228.29343719 80.98835632 -228.61766052 80.28207397 C-229.91297783 77.39887325 -230.75 75.39554421 -230.75 72.1953125 C-223.81246597 72.09332225 -216.87512755 72.02360058 -209.93701172 71.97558594 C-207.58016739 71.95555518 -205.22337222 71.92832258 -202.86669922 71.89355469 C-199.46569638 71.84466078 -196.0653545 71.82225748 -192.6640625 71.8046875 C-191.62198639 71.78404236 -190.57991028 71.76339722 -189.5062561 71.74212646 C-182.59083889 71.74003774 -176.85040508 72.81190353 -170.75 76.1953125 C-166.47836636 79.78639285 -164.32959457 83.87780044 -162.08203125 88.94140625 C-161.64221924 89.92681396 -161.20240723 90.91222168 -160.74926758 91.92749023 C-160.41950928 92.67587158 -160.08975098 93.42425293 -159.75 94.1953125 C-156.1582706 82.69080903 -152.59270679 71.18108072 -149.25 59.6015625 C-149.04559799 58.89359024 -148.84119598 58.18561798 -148.63059998 57.45619202 C-147.62557617 53.96910374 -146.62646279 50.48040504 -145.63305664 46.98999023 C-145.27074951 45.72614502 -144.90844238 44.4622998 -144.53515625 43.16015625 C-144.21426025 42.032146 -143.89336426 40.90413574 -143.56274414 39.74194336 C-142.75 37.1953125 -142.75 37.1953125 -141.75 36.1953125 C-140.29956852 36.08148027 -138.84370276 36.03576838 -137.38891602 36.01831055 C-135.99595055 35.99905769 -135.99595055 35.99905769 -134.57484436 35.97941589 C-133.56143478 35.97202896 -132.54802521 35.96464203 -131.50390625 35.95703125 C-130.46362778 35.9489595 -129.4233493 35.94088776 -128.35154724 35.93257141 C-126.13973671 35.9187041 -123.92790454 35.90799386 -121.71606445 35.90014648 C-118.35781002 35.88304326 -115.00056814 35.83919382 -111.64257812 35.79492188 C-109.49219473 35.7847856 -107.34180296 35.77627243 -105.19140625 35.76953125 C-104.19621475 35.75202316 -103.20102325 35.73451508 -102.17567444 35.71647644 C-95.38238654 35.73724337 -89.75060091 36.91142844 -83.75 40.1953125 C-76.86255788 45.65137699 -74.47812987 53.22367335 -71.74707031 61.28564453 C-70.50478788 64.9108948 -69.21845458 68.51999917 -67.9296875 72.12890625 C-65.1878032 79.81233652 -62.46461739 87.50220566 -59.75 95.1953125 C-57.89663918 92.41527127 -56.92036129 90.18477911 -55.81396484 87.06323242 C-55.4395224 86.01330612 -55.06507996 84.96337982 -54.67929077 83.88163757 C-54.0762059 82.17098869 -54.0762059 82.17098869 -53.4609375 80.42578125 C-52.82776108 78.64594597 -52.82776108 78.64594597 -52.18179321 76.83015442 C-51.05418 73.65852336 -49.93005606 70.48570089 -48.80773926 67.31219482 C-47.69588331 64.17015313 -46.58027426 61.02944604 -45.46484375 57.88867188 C-45.02996643 56.66375031 -44.59508911 55.43882874 -44.14703369 54.17678833 C-43.27386489 51.72030243 -42.39931504 49.26430699 -41.52337646 46.80880737 C-39.49779415 41.12969527 -37.48726655 35.44710133 -35.52832031 29.74462891 C-34.84449733 27.78675022 -34.16058372 25.82890319 -33.4765625 23.87109375 C-33.18526459 23.00131393 -32.89396667 22.13153412 -32.59384155 21.23539734 C-30.11909057 14.22374713 -26.64363162 8.58570383 -20.875 3.8203125 C-14.06648217 0.27988323 -7.51214602 -0.09063883 0 0 Z " fill="#686869" transform="translate(399.75,24.8046875)" />
<path d="M0 0 C1.34807739 0.00424484 1.34807739 0.00424484 2.72338867 0.00857544 C5.56573365 0.01968125 8.40775186 0.04476745 11.25 0.0703125 C13.1887975 0.08035473 15.12759999 0.08947839 17.06640625 0.09765625 C21.79439482 0.11958905 26.5221422 0.15405166 31.25 0.1953125 C30.64411313 6.58098285 28.6725232 12.22029614 26.515625 18.23828125 C25.9379261 19.87531006 25.9379261 19.87531006 25.34855652 21.54541016 C24.07160259 25.15999456 22.78570073 28.77133108 21.5 32.3828125 C20.59492893 34.93802612 19.69200497 37.49399614 18.78930664 40.05004883 C17.37809048 44.0448415 15.96636177 48.0394481 14.551651 52.03300476 C9.99581463 64.894807 5.4898373 77.77374666 0.98999023 90.65524292 C-6.0637511 110.84219782 -13.13688179 131.0223999 -20.22677612 151.19668579 C-21.07058967 153.59820005 -21.91395851 155.99987061 -22.75686646 158.40170288 C-23.91473746 161.70055168 -25.07430222 164.99879994 -26.234375 168.296875 C-26.5780864 169.27708115 -26.92179779 170.25728729 -27.27592468 171.26719666 C-27.746007 172.60180687 -27.746007 172.60180687 -28.22558594 173.96337891 C-28.49755798 174.73726959 -28.76953003 175.51116028 -29.04974365 176.3085022 C-29.75 178.1953125 -29.75 178.1953125 -30.75 180.1953125 C-49.89 180.1953125 -69.03 180.1953125 -88.75 180.1953125 C-85.37528263 168.94625459 -85.37528263 168.94625459 -83.66870117 164.28100586 C-83.28787888 163.23549057 -82.90705658 162.18997528 -82.51469421 161.11277771 C-82.11152481 160.01466263 -81.70835541 158.91654755 -81.29296875 157.78515625 C-80.65479973 156.03568443 -80.65479973 156.03568443 -80.0037384 154.25086975 C-78.65100559 150.54386528 -77.29445334 146.83827387 -75.9375 143.1328125 C-74.15884853 138.26740421 -72.38170587 133.40144645 -70.60546875 128.53515625 C-70.17470032 127.35509003 -69.74393188 126.1750238 -69.30010986 124.959198 C-66.32899267 116.80964064 -63.405533 108.64545842 -60.54202271 100.45755005 C-58.91695462 95.81590277 -57.28165183 91.17784818 -55.6484375 86.5390625 C-55.28567215 85.50816498 -54.9229068 84.47726746 -54.54914856 83.41513062 C-51.41928685 74.52328492 -48.27670351 65.63596619 -45.12902832 56.75041199 C-43.06141285 50.91165816 -41.00370609 45.06967548 -38.96194458 39.22183228 C-37.89451125 36.17246899 -36.81592529 33.12715032 -35.73370361 30.08300781 C-35.25180344 28.72000924 -34.77471661 27.35529742 -34.30291748 25.98876953 C-31.25862205 17.18106119 -28.16845436 9.84534001 -20.875 3.8203125 C-14.06648217 0.27988323 -7.51214602 -0.09063883 0 0 Z " fill="#B6B7B7" transform="translate(399.75,24.8046875)" />
<path d="M0 0 C6.65269765 -0.10203418 13.30519097 -0.17172984 19.95849609 -0.21972656 C22.21833843 -0.23975089 24.47812955 -0.26697862 26.73779297 -0.30175781 C29.99980362 -0.35068078 33.26112487 -0.37306132 36.5234375 -0.390625 C37.52176605 -0.41127014 38.5200946 -0.43191528 39.54867554 -0.45318604 C46.35862542 -0.45532867 51.98622976 0.70356045 58 4 C64.90641832 9.47192539 67.26743679 17.05119869 69.99853516 25.13427734 C70.98608094 27.96017017 72.02973756 30.76142463 73.09072876 33.56047058 C74.12751077 36.30116384 75.14604918 39.04848272 76.16296387 41.79660034 C76.67467213 43.16972451 77.19271371 44.54050701 77.71740723 45.90872192 C82.98218678 59.68828773 82.98218678 59.68828773 81.83569336 66.19311523 C80.2278375 71.59350051 78.12503227 76.79438027 76.00097656 82.00927734 C73.92656082 87.1194512 72.05190492 92.29014727 70.2109375 97.48828125 C69.89578186 98.37490448 69.58062622 99.26152771 69.25592041 100.17501831 C68.29340299 102.88673488 67.33387591 105.59949385 66.375 108.3125 C62.38209683 119.59535501 58.39062366 130.8641555 54 142 C51.33692156 139.67017196 50.22890229 137.55469341 49.00708008 134.25317383 C48.64693314 133.29240433 48.28678619 132.33163483 47.91572571 131.3417511 C47.53748154 130.30729355 47.15923737 129.272836 46.76953125 128.20703125 C46.1766053 126.61528328 46.1766053 126.61528328 45.57170105 124.99137878 C44.31089251 121.60123383 43.06158249 118.20698065 41.8125 114.8125 C40.95973822 112.51339212 40.10623166 110.21456035 39.25195312 107.91601562 C37.15931282 102.28051122 35.07697509 96.64129565 33 91 C31.02 96.94 29.04 102.88 27 109 C26.34 109 25.68 109 25 109 C24.67 109.66 24.34 110.32 24 111 C23.89945312 109.83855469 23.79890625 108.67710937 23.6953125 107.48046875 C22.2618103 93.48932153 19.34660903 79.98149587 16.125 66.3125 C15.91248596 65.41018646 15.69997192 64.50787292 15.48101807 63.57821655 C13.58194006 55.54768133 11.65607767 47.52480767 9.60058594 39.53271484 C9.37297577 38.64255173 9.1453656 37.75238861 8.91085815 36.83525085 C8.48113934 35.1612969 8.04628354 33.48864868 7.60501099 31.81770325 C6.41730329 27.19100277 5.64160372 22.69509397 5.23490906 17.93339539 C4.91240822 15.27908466 4.0332875 13.05222823 2.9375 10.625 C1.642604 7.72185239 1 6.21927113 1 3 C0.34 3 -0.32 3 -1 3 C-0.67 2.01 -0.34 1.02 0 0 Z " fill="#636365" transform="translate(258,61)" />
<path d="M0 0 C6.93753403 -0.10199025 13.87487245 -0.17171192 20.81298828 -0.21972656 C23.16983261 -0.23975732 25.52662778 -0.26698992 27.88330078 -0.30175781 C31.28430362 -0.35065172 34.6846455 -0.37305502 38.0859375 -0.390625 C39.12801361 -0.41127014 40.17008972 -0.43191528 41.2437439 -0.45318604 C48.15916111 -0.45527476 53.89959492 0.61659103 60 4 C65.47650745 8.59913486 68.89932604 15.23322725 71 22 C71.33414392 27.42910691 70.38096763 31.99989494 68.76171875 37.1328125 C68.52489883 37.91139618 68.28807892 38.68997986 68.04408264 39.49215698 C67.26735606 42.03922666 66.47740337 44.58198931 65.6875 47.125 C65.14574436 48.89420532 64.60506809 50.66374149 64.06542969 52.43359375 C63.2297001 55.1734388 62.39308438 57.91298703 61.55276489 60.65142822 C58.80797607 69.59619332 56.13770525 78.56248552 53.48062134 87.53363037 C52.53080183 90.73995063 51.57854328 93.94554431 50.62632751 97.15115356 C49.75029882 100.10059523 48.87510976 103.05028557 48 106 C47.34 106 46.68 106 46 106 C35.59402282 83.13437187 25.27791438 60.23434077 15.22900391 37.20922852 C14.88320282 36.41748734 14.53740173 35.62574615 14.18112183 34.81001282 C13.49970909 33.24967451 12.81896949 31.68904204 12.13894653 30.12809753 C10.28737818 25.89118111 8.40136957 21.67241698 6.47753906 17.46777344 C6.060336 16.55325409 5.64313293 15.63873474 5.21328735 14.69650269 C4.40506986 12.92919379 3.59209513 11.16405066 2.77377319 9.40139771 C2.41095245 8.60748627 2.04813171 7.81357483 1.67431641 6.99560547 C1.35057037 6.29515106 1.02682434 5.59469666 0.69326782 4.87301636 C0 3 0 3 0 0 Z " fill="#5F6161" transform="translate(169,97)" />
<path d="M0 0 C3.96 0 7.92 0 12 0 C14.31488658 6.61881061 16.11394807 13.23292661 17.6875 20.0625 C18.450625 23.341875 19.21375 26.62125 20 30 C22.31 20.1 24.62 10.2 27 0 C30.96 0 34.92 0 39 0 C40.36748799 3.91945442 41.45835322 7.7698342 42.2890625 11.8359375 C42.50820312 12.89941406 42.72734375 13.96289062 42.953125 15.05859375 C43.17484375 16.15300781 43.3965625 17.24742187 43.625 18.375 C43.96917969 20.05142578 43.96917969 20.05142578 44.3203125 21.76171875 C44.88348012 24.50716089 45.44326868 27.25324675 46 30 C46.30236572 28.79670044 46.30236572 28.79670044 46.61083984 27.5690918 C47.52623987 23.94035357 48.4505075 20.31393188 49.375 16.6875 C49.85066406 14.79354492 49.85066406 14.79354492 50.3359375 12.86132812 C50.6453125 11.65283203 50.9546875 10.44433594 51.2734375 9.19921875 C51.55622559 8.08377686 51.83901367 6.96833496 52.13037109 5.8190918 C53 3 53 3 55 0 C58.63 0 62.26 0 66 0 C63.19323419 11.58436015 60.05776262 23.04950094 56.75 34.5 C56.28620651 36.11320887 55.82266369 37.72648983 55.359375 39.33984375 C54.24245588 43.22739518 53.12220316 47.11397076 52 51 C48.04 51 44.08 51 40 51 C39.823479 50.10692139 39.64695801 49.21384277 39.46508789 48.29370117 C38.80875988 44.97796055 38.15069657 41.66257418 37.49145508 38.34741211 C37.20657914 36.91297989 36.92239402 35.47841031 36.63891602 34.04370117 C36.23115003 31.98059093 35.82089592 29.91798875 35.41015625 27.85546875 C35.04096069 25.99378052 35.04096069 25.99378052 34.66430664 24.09448242 C34.05618622 20.9851219 34.05618622 20.9851219 33 18 C32.823479 18.89307861 32.64695801 19.78615723 32.46508789 20.70629883 C31.80875988 24.02203945 31.15069657 27.33742582 30.49145508 30.65258789 C30.20657914 32.08702011 29.92239402 33.52158969 29.63891602 34.95629883 C29.23115003 37.01940907 28.82089592 39.08201125 28.41015625 41.14453125 C28.16402588 42.38565674 27.91789551 43.62678223 27.66430664 44.90551758 C27 48 27 48 26 51 C22.37 51 18.74 51 15 51 C12.69728489 45.0945192 10.8047775 39.16413356 9.08203125 33.06640625 C8.81992355 32.14786362 8.55781586 31.22932098 8.2877655 30.28294373 C7.73919312 28.35809977 7.19220226 26.43280444 6.64672852 24.50708008 C5.80782374 21.54599418 4.96388658 18.58637735 4.11914062 15.62695312 C3.58564606 13.7526871 3.0524327 11.878341 2.51953125 10.00390625 C2.26645706 9.11546524 2.01338287 8.22702423 1.75263977 7.31166077 C0 1.11665773 0 1.11665773 0 0 Z " fill="#FFFFFF" transform="translate(117,220)" />
<path d="M0 0 C4.18825504 -0.48930135 8.41147153 -0.37042505 12.625 -0.375 C13.78902344 -0.39949219 14.95304687 -0.42398438 16.15234375 -0.44921875 C23.26713329 -0.47339131 27.98495082 0.11410958 34 4 C38.2221102 7.93950121 40.35834307 12.17670952 41.625 17.75 C42.56983463 25.93856683 42.11053649 33.25874001 39 41 C36.6195296 44.96745067 34.1661916 47.30223683 30.19921875 49.67578125 C24.33403892 52.05004074 17.76779844 51.30966388 11.5625 51.1875 C10.25861328 51.17396484 8.95472656 51.16042969 7.61132812 51.14648438 C4.40712378 51.11127334 1.20377895 51.06202094 -2 51 C-2.05058729 44.05829978 -2.08568579 37.11664685 -2.10986328 30.17480469 C-2.11993924 27.81183089 -2.13360029 25.44886961 -2.15087891 23.0859375 C-2.17505724 19.69528112 -2.18646699 16.30478916 -2.1953125 12.9140625 C-2.20563507 11.85256989 -2.21595764 10.79107727 -2.22659302 9.69741821 C-2.22674408 8.71655243 -2.22689514 7.73568665 -2.22705078 6.72509766 C-2.23371262 5.42603989 -2.23371262 5.42603989 -2.24050903 4.10073853 C-2.16114105 3.40749481 -2.08177307 2.7142511 -2 2 C-1.34 1.34 -0.68 0.68 0 0 Z M9 10 C9 20.23 9 30.46 9 41 C21.11392398 42.1147408 21.11392398 42.1147408 27 38 C30.24456749 32.74156304 30.45729251 27.9299549 30.2890625 21.8125 C29.92494541 18.26973916 29.07915705 15.89596876 27 13 C25.68 12.01 24.36 11.02 23 10 C18.38 10 13.76 10 9 10 Z " fill="#FFFFFF" transform="translate(242,220)" />
<path d="M0 0 C4.18825504 -0.48930135 8.41147153 -0.37042505 12.625 -0.375 C13.78902344 -0.39949219 14.95304687 -0.42398438 16.15234375 -0.44921875 C23.26713329 -0.47339131 27.98495082 0.11410958 34 4 C38.24094202 7.95707252 40.3794802 12.20766092 41.625 17.8125 C42.5373971 25.56787539 42.32639657 33.03994694 38.96484375 40.20703125 C36.35189343 44.73558501 33.67482948 47.4593318 29 50 C25.64264863 51.11911712 23.11794614 51.11365586 19.58203125 51.09765625 C18.32841797 51.09443359 17.07480469 51.09121094 15.78320312 51.08789062 C14.47287109 51.07951172 13.16253906 51.07113281 11.8125 51.0625 C10.47721519 51.05748317 9.14192859 51.05292059 7.80664062 51.04882812 C4.53771527 51.03702695 1.26888009 51.02056297 -2 51 C-2.05058729 44.05829978 -2.08568579 37.11664685 -2.10986328 30.17480469 C-2.11993924 27.81183089 -2.13360029 25.44886961 -2.15087891 23.0859375 C-2.17505724 19.69528112 -2.18646699 16.30478916 -2.1953125 12.9140625 C-2.20563507 11.85256989 -2.21595764 10.79107727 -2.22659302 9.69741821 C-2.22674408 8.71655243 -2.22689514 7.73568665 -2.22705078 6.72509766 C-2.23371262 5.42603989 -2.23371262 5.42603989 -2.24050903 4.10073853 C-2.16114105 3.40749481 -2.08177307 2.7142511 -2 2 C-1.34 1.34 -0.68 0.68 0 0 Z M9 10 C9 20.23 9 30.46 9 41 C21.11392398 42.1147408 21.11392398 42.1147408 27 38 C30.05135125 32.94948759 30.46610614 28.51478504 30.2890625 22.65625 C29.87028422 18.8080172 28.9561141 16.35333846 27 13 C25.68 12.01 24.36 11.02 23 10 C18.38 10 13.76 10 9 10 Z " fill="#FFFFFF" transform="translate(441,220)" />
<path d="M0 0 C2.97 0 5.94 0 9 0 C9 6.27 9 12.54 9 19 C15.6 19 22.2 19 29 19 C29 12.73 29 6.46 29 0 C32.63 0 36.26 0 40 0 C40 16.83 40 33.66 40 51 C36.37 51 32.74 51 29 51 C29 43.74 29 36.48 29 29 C22.4 29 15.8 29 9 29 C9 36.26 9 43.52 9 51 C5.04 51 1.08 51 -3 51 C-3.07414138 44.37974501 -3.12859848 37.75973156 -3.16479492 31.13916016 C-3.17988395 28.88683869 -3.20035755 26.63454661 -3.22631836 24.38232422 C-3.26269593 21.14543404 -3.2797253 17.90893225 -3.29296875 14.671875 C-3.30845261 13.66445251 -3.32393646 12.65703003 -3.33988953 11.61907959 C-3.34011612 10.67840637 -3.34034271 9.73773315 -3.34057617 8.76855469 C-3.34723801 7.94248718 -3.35389984 7.11641968 -3.36076355 6.26531982 C-3 4 -3 4 -2.04121399 1.70196533 C-1.36761337 1.14031677 -0.69401276 0.57866821 0 0 Z " fill="#FFFFFF" transform="translate(340,220)" />
<path d="M0 0 C4.60778255 2.12328029 7.77765021 4.97551587 10.48046875 9.31640625 C11.13924448 12.32022694 11.4054033 15.24554678 11.48046875 18.31640625 C8.62188222 18.55865935 6.28497875 18.74545442 3.48046875 18.31640625 C0.79296875 16.00390625 0.79296875 16.00390625 -1.51953125 13.31640625 C-4.5407495 11.01073969 -6.20726588 10.34986325 -10.01953125 9.94140625 C-13.80494198 10.34698597 -15.57297814 10.94279403 -18.51953125 13.31640625 C-21.09457165 16.35127529 -21.83232513 19.20871533 -22.39453125 23.06640625 C-22.78124761 28.24067118 -21.9015976 32.69406322 -19.51953125 37.31640625 C-18.24721289 39.07314787 -18.24721289 39.07314787 -16.51953125 40.31640625 C-12.34511866 41.5011443 -8.3367111 41.45012659 -4.08203125 40.75390625 C-3.23640625 40.27953125 -2.39078125 39.80515625 -1.51953125 39.31640625 C-0.06792187 36.29860753 -0.06792187 36.29860753 0.48046875 33.31640625 C4.11046875 33.31640625 7.74046875 33.31640625 11.48046875 33.31640625 C11.17888895 37.68931334 10.82592124 40.62550128 8.85546875 44.56640625 C5.67087618 48.25382923 2.35826163 50.40408468 -2.35546875 51.8984375 C-8.30776642 53.048069 -14.59275774 53.19601608 -20.41796875 51.4453125 C-25.22276607 49.24491733 -28.63389873 46.75599009 -31.58203125 42.35546875 C-35.16187447 34.56930975 -35.10021604 26.71400168 -34.51953125 18.31640625 C-33.46519485 12.80615179 -31.59580135 8.27944662 -27.51953125 4.31640625 C-19.42857075 -1.26030718 -9.54869135 -2.59073021 0 0 Z " fill="#FFFFFF" transform="translate(321.51953125,219.68359375)" />
<path d="M0 0 C1.19370099 0.00063635 1.19370099 0.00063635 2.41151714 0.00128555 C22.19102463 0.01201541 41.97051327 0.03141406 61.75 0.0625 C61.75 1.0525 61.75 2.0425 61.75 3.0625 C29.89539581 3.19145743 -1.95921369 3.31899385 -33.81383093 3.44468227 C-37.61799345 3.4596935 -41.42215592 3.47471623 -45.22631836 3.48974609 C-46.36181 3.49423202 -46.36181 3.49423202 -47.52024087 3.49880856 C-58.11550335 3.54069042 -68.7107632 3.58319013 -79.3060212 3.62619197 C-97.55426856 3.70025351 -115.80252031 3.77310727 -134.05078125 3.84375 C-135.11202342 3.84786243 -135.11202342 3.84786243 -136.19470483 3.85205793 C-178.8798268 4.01726821 -221.56452045 4.14985998 -264.25 4.0625 C-264.25 3.0725 -264.25 2.0825 -264.25 1.0625 C-237.29171786 0.88731715 -210.33338282 0.72142313 -183.375 0.5625 C-182.3676713 0.55655146 -181.3603426 0.55060292 -180.32248878 0.54447412 C-120.21472362 0.19009623 -60.108851 -0.03303185 0 0 Z " fill="#FFFFFF" transform="translate(401.25,281.9375)" />
<path d="M0 0 C2.97 0 5.94 0 9 0 C9 13.53 9 27.06 9 41 C16.92 41 24.84 41 33 41 C33 44.3 33 47.6 33 51 C21.12 51 9.24 51 -3 51 C-3.06885904 44.3793304 -3.12859754 37.7599025 -3.16479492 31.13916016 C-3.17988395 28.88683869 -3.20035755 26.63454661 -3.22631836 24.38232422 C-3.26269593 21.14543404 -3.2797253 17.90893225 -3.29296875 14.671875 C-3.30845261 13.66445251 -3.32393646 12.65703003 -3.33988953 11.61907959 C-3.34011612 10.67840637 -3.34034271 9.73773315 -3.34057617 8.76855469 C-3.34723801 7.94248718 -3.35389984 7.11641968 -3.36076355 6.26531982 C-3 4 -3 4 -2.04121399 1.70196533 C-1.36761337 1.14031677 -0.69401276 0.57866821 0 0 Z " fill="#FFFFFF" transform="translate(402,220)" />
<path d="M0 0 C2.97 0 5.94 0 9 0 C9 13.53 9 27.06 9 41 C16.92 41 24.84 41 33 41 C33 44.3 33 47.6 33 51 C21.12 51 9.24 51 -3 51 C-3.06885904 44.3793304 -3.12859754 37.7599025 -3.16479492 31.13916016 C-3.17988395 28.88683869 -3.20035755 26.63454661 -3.22631836 24.38232422 C-3.26269593 21.14543404 -3.2797253 17.90893225 -3.29296875 14.671875 C-3.30845261 13.66445251 -3.32393646 12.65703003 -3.33988953 11.61907959 C-3.34011612 10.67840637 -3.34034271 9.73773315 -3.34057617 8.76855469 C-3.34723801 7.94248718 -3.35389984 7.11641968 -3.36076355 6.26531982 C-3 4 -3 4 -2.04121399 1.70196533 C-1.36761337 1.14031677 -0.69401276 0.57866821 0 0 Z " fill="#FFFFFF" transform="translate(203,220)" />
<path d="M0 0 C1.74075127 2.61112691 2.71755318 4.64794458 3.78417969 7.55297852 C4.29546417 8.93701622 4.29546417 8.93701622 4.81707764 10.34901428 C5.18166077 11.34887863 5.5462439 12.34874298 5.921875 13.37890625 C6.30434387 14.41957748 6.68681274 15.46024872 7.08087158 16.53245544 C7.8930538 18.74514302 8.70328176 20.95854873 9.51171875 23.17260742 C10.7268295 26.49906893 11.94880726 29.82294152 13.171875 33.14648438 C15.12000791 38.44821843 17.03339228 43.76176839 18.93743896 49.07946777 C19.9288845 51.80453348 20.96156195 54.5096666 22.00830078 57.21386719 C26.68665418 69.61883607 26.68665418 69.61883607 25.2734375 76.1328125 C24.69504922 77.81656505 24.06292051 79.48295218 23.375 81.125 C23.06175781 81.99769531 22.74851562 82.87039062 22.42578125 83.76953125 C21.66408591 85.86996386 20.85921176 87.93802166 20 90 C19.34 90 18.68 90 18 90 C17.67 90.66 17.34 91.32 17 92 C16.89945312 90.83855469 16.79890625 89.67710937 16.6953125 88.48046875 C15.2618103 74.48932153 12.34660903 60.98149587 9.125 47.3125 C8.91248596 46.41018646 8.69997192 45.50787292 8.48101807 44.57821655 C7.84801252 41.90145797 7.21055642 39.22581737 6.5703125 36.55078125 C6.36230011 35.68138412 6.15428772 34.811987 5.93997192 33.91624451 C4.85166623 29.40617691 3.72111835 24.91138978 2.53027344 20.42724609 C2.29363983 19.52354782 2.05700623 18.61984955 1.8132019 17.68876648 C1.36222241 15.9744334 0.90149512 14.26262313 0.42922974 12.55403137 C-0.76152922 8.00628254 -1.21289284 4.67033988 0 0 Z " fill="#39393A" transform="translate(265,80)" />
<path d="M0 0 C2.97 0 5.94 0 9 0 C9 16.83 9 33.66 9 51 C5.37 51 1.74 51 -2 51 C-2.04932895 44.05827886 -2.08568574 37.11665908 -2.10986328 30.17480469 C-2.11993924 27.81183089 -2.13360029 25.44886961 -2.15087891 23.0859375 C-2.17505724 19.69528112 -2.18646699 16.30478916 -2.1953125 12.9140625 C-2.20563507 11.85256989 -2.21595764 10.79107727 -2.22659302 9.69741821 C-2.22674408 8.71655243 -2.22689514 7.73568665 -2.22705078 6.72509766 C-2.23371262 5.42603989 -2.23371262 5.42603989 -2.24050903 4.10073853 C-2.16114105 3.40749481 -2.08177307 2.7142511 -2 2 C-1.34 1.34 -0.68 0.68 0 0 Z " fill="#FFFFFF" transform="translate(386,220)" />
<path d="M0 0 C2.97 0 5.94 0 9 0 C9 16.83 9 33.66 9 51 C5.37 51 1.74 51 -2 51 C-2.04932895 44.05827886 -2.08568574 37.11665908 -2.10986328 30.17480469 C-2.11993924 27.81183089 -2.13360029 25.44886961 -2.15087891 23.0859375 C-2.17505724 19.69528112 -2.18646699 16.30478916 -2.1953125 12.9140625 C-2.20563507 11.85256989 -2.21595764 10.79107727 -2.22659302 9.69741821 C-2.22674408 8.71655243 -2.22689514 7.73568665 -2.22705078 6.72509766 C-2.23371262 5.42603989 -2.23371262 5.42603989 -2.24050903 4.10073853 C-2.16114105 3.40749481 -2.08177307 2.7142511 -2 2 C-1.34 1.34 -0.68 0.68 0 0 Z " fill="#FFFFFF" transform="translate(187,220)" />
<path d="M0 0 C1.47919922 0.03480469 1.47919922 0.03480469 2.98828125 0.0703125 C4.47908203 0.09738281 4.47908203 0.09738281 6 0.125 C6.75925781 0.14820313 7.51851563 0.17140625 8.30078125 0.1953125 C8.63078125 1.5153125 8.96078125 2.8353125 9.30078125 4.1953125 C8.97078125 4.5253125 8.64078125 4.8553125 8.30078125 5.1953125 C6.78150087 5.26711214 5.25910643 5.27923257 3.73828125 5.2578125 C2.91199219 5.24878906 2.08570313 5.23976563 1.234375 5.23046875 C0.59628906 5.21886719 -0.04179687 5.20726562 -0.69921875 5.1953125 C-0.69921875 5.8553125 -0.69921875 6.5153125 -0.69921875 7.1953125 C0.39390625 7.1128125 1.48703125 7.0303125 2.61328125 6.9453125 C3.83015625 7.0278125 5.04703125 7.1103125 6.30078125 7.1953125 C8.30078125 8.8828125 8.30078125 8.8828125 9.30078125 11.1953125 C9.11328125 13.8203125 9.11328125 13.8203125 8.30078125 16.1953125 C7.64078125 16.8553125 6.98078125 17.5153125 6.30078125 18.1953125 C3.48046875 18.390625 3.48046875 18.390625 0.17578125 18.3203125 C-0.91992188 18.30226563 -2.015625 18.28421875 -3.14453125 18.265625 C-3.98757813 18.24242187 -4.830625 18.21921875 -5.69921875 18.1953125 C-5.69921875 16.8753125 -5.69921875 15.5553125 -5.69921875 14.1953125 C-4.70921875 13.5353125 -3.71921875 12.8753125 -2.69921875 12.1953125 C-3.37984375 11.6590625 -4.06046875 11.1228125 -4.76171875 10.5703125 C-5.40109375 9.7865625 -6.04046875 9.0028125 -6.69921875 8.1953125 C-6.63671875 5.0703125 -6.63671875 5.0703125 -5.69921875 2.1953125 C-2.69921875 0.1953125 -2.69921875 0.1953125 0 0 Z " fill="#FFFFFF" transform="translate(431.69921875,292.8046875)" />
<path d="M0 0 C1.47919922 0.03480469 1.47919922 0.03480469 2.98828125 0.0703125 C4.47908203 0.09738281 4.47908203 0.09738281 6 0.125 C6.75925781 0.14820313 7.51851562 0.17140625 8.30078125 0.1953125 C8.63078125 1.5153125 8.96078125 2.8353125 9.30078125 4.1953125 C8.97078125 4.5253125 8.64078125 4.8553125 8.30078125 5.1953125 C6.78150087 5.26711214 5.25910643 5.27923257 3.73828125 5.2578125 C2.91199219 5.24878906 2.08570313 5.23976563 1.234375 5.23046875 C0.59628906 5.21886719 -0.04179687 5.20726562 -0.69921875 5.1953125 C-0.69921875 5.8553125 -0.69921875 6.5153125 -0.69921875 7.1953125 C0.39390625 7.1128125 1.48703125 7.0303125 2.61328125 6.9453125 C3.83015625 7.0278125 5.04703125 7.1103125 6.30078125 7.1953125 C8.30078125 8.8828125 8.30078125 8.8828125 9.30078125 11.1953125 C9.11328125 13.8203125 9.11328125 13.8203125 8.30078125 16.1953125 C7.64078125 16.8553125 6.98078125 17.5153125 6.30078125 18.1953125 C3.48046875 18.390625 3.48046875 18.390625 0.17578125 18.3203125 C-0.91992188 18.30226563 -2.015625 18.28421875 -3.14453125 18.265625 C-3.98757812 18.24242187 -4.830625 18.21921875 -5.69921875 18.1953125 C-5.69921875 16.8753125 -5.69921875 15.5553125 -5.69921875 14.1953125 C-4.70921875 13.5353125 -3.71921875 12.8753125 -2.69921875 12.1953125 C-3.37984375 11.6590625 -4.06046875 11.1228125 -4.76171875 10.5703125 C-5.40109375 9.7865625 -6.04046875 9.0028125 -6.69921875 8.1953125 C-6.63671875 5.0703125 -6.63671875 5.0703125 -5.69921875 2.1953125 C-2.69921875 0.1953125 -2.69921875 0.1953125 0 0 Z " fill="#FFFFFF" transform="translate(165.69921875,292.8046875)" />
<path d="M0 0 C4.45908608 -0.49545401 8.5649857 -0.71750715 12.625 1.3125 C14.53013776 5.03617834 14.43920343 8.30707399 14.43359375 12.44140625 C14 15 14 15 12.859375 16.828125 C10.14691687 18.53765743 7.98305714 18.28977604 4.8125 18.1875 C3.72582031 18.16042969 2.63914062 18.13335937 1.51953125 18.10546875 C0.27236328 18.05326172 0.27236328 18.05326172 -1 18 C-1.02684312 15.18743719 -1.04676188 12.37512759 -1.0625 9.5625 C-1.07087891 8.76005859 -1.07925781 7.95761719 -1.08789062 7.13085938 C-1.0965143 5.08704779 -1.0522815 3.04316098 -1 1 C-0.67 0.67 -0.34 0.34 0 0 Z M4 5 C4 7.64 4 10.28 4 13 C5.65 12.67 7.3 12.34 9 12 C9 10.02 9 8.04 9 6 C7.35 5.67 5.7 5.34 4 5 Z " fill="#FFFFFF" transform="translate(299,293)" />
<path d="M0 0 C0.99 0.66 1.98 1.32 3 2 C3.91476665 4.74429996 4.19238444 6.59033094 4.25 9.4375 C4.27578125 10.19933594 4.3015625 10.96117187 4.328125 11.74609375 C4 14 4 14 2.796875 16.2578125 C1 18 1 18 -1.375 18.49609375 C-2.24125 18.47675781 -3.1075 18.45742188 -4 18.4375 C-4.86625 18.43621094 -5.7325 18.43492187 -6.625 18.43359375 C-9 18 -9 18 -10.78515625 16.8125 C-12.45023056 14.32827338 -12.43346629 12.53534563 -12.4375 9.5625 C-12.32364378 6.11948784 -12.19340302 4.34651374 -10.5 1.3125 C-6.7576781 -0.652219 -4.21403209 -0.40133639 0 0 Z M-6 5 C-6.33 5.33 -6.66 5.66 -7 6 C-7.04092937 8.33297433 -7.04241723 10.66705225 -7 13 C-5.33388095 13.042721 -3.66617115 13.04063832 -2 13 C-1.67 12.67 -1.34 12.34 -1 12 C-1.28730055 9.66055264 -1.61936779 7.3260857 -2 5 C-3.32 5 -4.64 5 -6 5 Z " fill="#FFFFFF" transform="translate(391,293)" />
<path d="M0 0 C0.99 0.33 1.98 0.66 3 1 C3.33 4.63 3.66 8.26 4 12 C5.65 12.33 7.3 12.66 9 13 C9 9.04 9 5.08 9 1 C10.32 0.67 11.64 0.34 13 0 C13.33 0.33 13.66 0.66 14 1 C14.15215174 3.28812814 14.22186492 5.58199128 14.25 7.875 C14.27578125 9.13054687 14.3015625 10.38609375 14.328125 11.6796875 C14 15 14 15 12.80859375 16.93359375 C10.36486495 18.37449647 8.62948816 18.29725279 5.8125 18.1875 C4.46091797 18.14689453 4.46091797 18.14689453 3.08203125 18.10546875 C2.39496094 18.07066406 1.70789063 18.03585937 1 18 C-1.05488515 15.51701378 -1.95063446 13.49651722 -2.26953125 10.2890625 C-2.31007826 7.48026029 -2.34580559 4.78889967 -2 2 C-1.34 1.34 -0.68 0.68 0 0 Z " fill="#FFFFFF" transform="translate(253,293)" />
<path d="M0 0 C2.35313555 -0.07271741 4.70833668 -0.08370868 7.0625 -0.0625 C8.35285156 -0.05347656 9.64320313 -0.04445313 10.97265625 -0.03515625 C11.97167969 -0.02355469 12.97070312 -0.01195312 14 0 C14.33 1.32 14.66 2.64 15 4 C13.35 4.33 11.7 4.66 10 5 C10 8.96 10 12.92 10 17 C8.35 17.33 6.7 17.66 5 18 C5 13.71 5 9.42 5 5 C3.35 5 1.7 5 0 5 C-0.33 3.68 -0.66 2.36 -1 1 C-0.67 0.67 -0.34 0.34 0 0 Z " fill="#FFFFFF" transform="translate(206,293)" />
<path d="M0 0 C1.32 0 2.64 0 4 0 C5.53266582 3.06533164 5.10276471 6.26754272 5.0625 9.625 C5.05798828 10.33140625 5.05347656 11.0378125 5.04882812 11.765625 C5.03703875 13.51045275 5.01910324 15.255237 5 17 C3.35 17.33 1.7 17.66 0 18 C0 12.06 0 6.12 0 0 Z " fill="#FFFFFF" transform="translate(344,293)" />
</svg>
